Coordinates
version=1
nRows=9
nColumns=63
inDegrees=yes

Units are S.I. units (second, meters, Newtons, ...)
If the header above contains a line with 'inDegrees', this indicates whether rotational values are in degrees (yes) or radians (no).

endheader
time	pelvis_tilt	pelvis_list	pelvis_rotation	pelvis_tx	pelvis_ty	pelvis_tz	hip_flexion_r	hip_adduction_r	hip_rotation_r	knee_angle_r	knee_angle_r_beta	ankle_angle_r	subtalar_angle_r	mtp_angle_r	hip_flexion_l	hip_adduction_l	hip_rotation_l	knee_angle_l	knee_angle_l_beta	ankle_angle_l	subtalar_angle_l	mtp_angle_l	L5_S1_Flex_Ext	L5_S1_Lat_Bending	L5_S1_axial_rotation	L4_L5_Flex_Ext	L4_L5_Lat_Bending	L4_L5_axial_rotation	L3_L4_Flex_Ext	L3_L4_Lat_Bending	L3_L4_axial_rotation	L2_L3_Flex_Ext	L2_L3_Lat_Bending	L2_L3_axial_rotation	L1_L2_Flex_Ext	L1_L2_Lat_Bending	L1_L2_axial_rotation	L1_T12_Flex_Ext	L1_T12_Lat_Bending	L1_T12_axial_rotation	Abs_r3	Abs_r2	Abs_r1	Abs_t1	Abs_t2	neck_flexion	neck_bending	neck_rotation	arm_flex_r	arm_add_r	arm_rot_r	elbow_flex_r	pro_sup_r	wrist_flex_r	wrist_dev_r	arm_flex_l	arm_add_l	arm_rot_l	elbow_flex_l	pro_sup_l	wrist_flex_l	wrist_dev_l
5.063830	-1.751326	-2.619037	88.466453	0.199520	0.990414	0.523037	0.196367	-1.812833	-6.221092	15.503271	0.270583	33.830601	4.736175	0.000000	-3.716781	3.082527	-9.347538	8.750610	0.152727	32.563581	5.269422	0.000000	-0.239453	-0.236438	-0.396905	-0.444689	-0.314463	-0.421711	-0.393398	-0.574876	-0.421711	-0.273671	-0.574876	-0.347292	-0.222356	-0.482145	-0.322485	-0.136824	-0.366243	-0.297678	-1.710391	-2.674637	-2.207464	0.000000	0.000000	16.017784	-2.952389	-7.295706	-22.460246	-14.484982	-4.536304	123.879290	87.954805	-7.984644	-3.252684	-9.635886	-11.933872	11.780602	68.522646	89.251287	-3.495778	-5.239589
5.085106	-1.620111	-2.425654	88.925251	0.199029	0.990340	0.521583	-0.225789	-1.654377	-6.717953	15.327627	0.267518	33.931079	4.909119	0.000000	-4.102631	2.991025	-8.106732	8.510032	0.148528	32.420618	4.156827	0.000000	-0.218147	-0.272027	-0.443811	-0.405120	-0.361795	-0.471549	-0.358393	-0.661406	-0.471549	-0.249320	-0.661406	-0.388335	-0.202571	-0.554717	-0.360597	-0.124649	-0.421369	-0.332858	-1.558201	-3.077220	-2.468345	0.000000	0.000000	15.357074	-2.212076	-7.764269	-22.406848	-14.513979	-5.336626	123.424343	87.478437	-8.354606	-2.339145	-9.322366	-11.940377	12.959755	70.674102	89.180421	-3.110899	-5.125975
5.106383	-1.482209	-2.199216	89.396815	0.198709	0.990259	0.519810	-0.724771	-1.448864	-7.025896	15.097983	0.263510	33.943286	4.814270	0.000000	-4.530103	2.868219	-6.932833	8.292106	0.144725	32.331510	3.140969	0.000000	-0.195388	-0.311394	-0.485102	-0.362855	-0.414154	-0.515420	-0.321003	-0.757124	-0.515420	-0.223309	-0.757124	-0.424464	-0.181437	-0.634995	-0.394145	-0.111645	-0.482349	-0.363826	-1.395637	-3.522552	-2.697990	0.000000	0.000000	14.602735	-1.444079	-8.232534	-22.396623	-14.455639	-6.083235	122.896944	86.841884	-8.665325	-1.144855	-9.048843	-11.890934	14.093877	72.800780	89.089336	-2.801860	-4.522458
5.127660	-1.348053	-1.940787	89.849240	0.198557	0.990155	0.517822	-1.279699	-1.226429	-7.228801	14.841850	0.259039	33.906960	4.612000	0.000000	-4.993054	2.743460	-5.730056	8.093738	0.141262	32.271524	2.053981	0.000000	-0.174188	-0.352808	-0.522175	-0.323484	-0.469235	-0.554810	-0.286173	-0.857818	-0.554810	-0.199079	-0.857818	-0.456903	-0.161751	-0.719447	-0.424267	-0.099531	-0.546500	-0.391631	-1.244207	-3.991038	-2.904178	0.000000	0.000000	13.754466	-0.745347	-8.695062	-22.417691	-14.320861	-6.704125	122.380935	86.204485	-8.816244	0.234872	-8.829466	-11.789930	15.175195	74.838950	88.995583	-2.475679	-3.392107
5.148936	-1.198772	-1.653453	90.279744	0.198541	0.990022	0.515701	-1.882474	-0.966607	-7.293504	14.558245	0.254089	33.809039	4.261187	0.000000	-5.473165	2.590854	-4.624314	7.942221	0.138618	32.289793	1.058098	0.000000	-0.156352	-0.391664	-0.560869	-0.290361	-0.520912	-0.595923	-0.256871	-0.952291	-0.595923	-0.178695	-0.952291	-0.490760	-0.145188	-0.798680	-0.455706	-0.089340	-0.606687	-0.420651	-1.116806	-4.430576	-3.119383	0.000000	0.000000	12.804689	-0.163108	-9.123099	-22.469496	-14.153633	-7.161880	121.954274	85.562661	-8.742806	1.651084	-8.662659	-11.665135	16.241137	76.726701	88.926998	-1.954716	-1.688978
5.170213	-1.057473	-1.353985	90.586793	0.198757	0.989872	0.513563	-2.476131	-0.708347	-7.196152	14.291937	0.249441	33.686487	3.862231	0.000000	-5.956835	2.449387	-3.662927	7.814818	0.136394	32.342140	0.077621	0.000000	-0.141581	-0.428277	-0.593612	-0.262930	-0.569609	-0.630713	-0.232604	-1.041313	-0.630713	-0.161813	-1.041313	-0.519410	-0.131472	-0.873343	-0.482310	-0.080900	-0.663401	-0.445209	-1.011301	-4.844756	-3.301491	0.000000	0.000000	11.772049	0.235169	-9.450172	-22.520319	-13.973972	-7.465865	121.618585	85.238173	-8.364844	2.745819	-8.552261	-11.527115	17.258310	78.396822	88.939035	-1.171589	0.454376
5.191489	-0.918417	-1.049406	90.741647	0.199217	0.989715	0.511407	-3.051801	-0.445714	-6.884351	14.041107	0.245064	33.528962	3.359486	0.000000	-6.434947	2.306000	-3.018943	7.721002	0.134757	32.464945	-0.679021	0.000000	-0.129448	-0.460792	-0.620761	-0.240398	-0.612853	-0.659559	-0.212670	-1.120369	-0.659559	-0.147946	-1.120369	-0.543166	-0.120205	-0.939647	-0.504368	-0.073967	-0.713766	-0.465571	-0.924634	-5.212569	-3.452487	0.000000	0.000000	10.688002	0.495508	-9.654043	-22.544237	-13.809413	-7.618231	121.414954	85.229025	-7.925585	3.343786	-8.510717	-11.398303	18.201616	79.839302	89.157198	-0.054113	2.865529
5.212766	-0.798229	-0.744275	90.749730	0.199916	0.989578	0.509284	-3.594578	-0.204218	-6.404766	13.824096	0.241276	33.358043	2.799056	0.000000	-6.900550	2.178928	-2.689345	7.656014	0.133623	32.638021	-1.196600	0.000000	-0.120353	-0.489807	-0.653332	-0.223507	-0.651444	-0.694165	-0.197728	-1.190918	-0.694165	-0.137551	-1.190918	-0.571666	-0.111760	-0.998815	-0.530832	-0.068770	-0.758712	-0.489999	-0.859669	-5.540799	-3.633637	0.000000	0.000000	9.599691	0.602602	-9.667355	-22.425437	-13.679437	-7.619188	121.361495	85.381033	-7.612312	3.414938	-8.558586	-11.301186	18.986016	81.070787	89.610480	1.384364	5.226869
5.234043	-0.699786	-0.443387	90.623802	0.200854	0.989474	0.507246	-4.096883	0.009618	-5.781678	13.647138	0.238187	33.183208	2.181033	0.000000	-7.342337	2.069310	-2.674807	7.628871	0.133149	32.862818	-1.455912	0.000000	-0.114110	-0.515570	-0.694098	-0.211914	-0.685708	-0.737479	-0.187471	-1.253556	-0.737479	-0.130416	-1.253556	-0.607336	-0.105962	-1.051350	-0.563955	-0.065202	-0.798617	-0.520574	-0.815076	-5.832227	-3.860366	0.000000	0.000000	8.556133	0.609621	-9.508660	-22.064955	-13.580880	-7.582295	121.478488	85.497451	-7.520813	2.951665	-8.681089	-11.268433	19.592585	82.148805	89.938146	2.995763	7.385614
